<?xml version="1.0" standalone="no"?>
<!DOCTYPE svg PUBLIC "-//W3C//DTD SVG 20010904//EN"
 "http://www.w3.org/TR/2001/REC-SVG-20010904/DTD/svg10.dtd">
<svg version="1.0" xmlns="http://www.w3.org/2000/svg"
 width="860.000000pt" height="900.000000pt" viewBox="0 0 860.000000 900.000000"
 preserveAspectRatio="xMidYMid meet">

<g transform="translate(0.000000,900.000000) scale(0.100000,-0.100000)"
fill="#000000" stroke="none">
<path d="M5220 6595 c0 -30 -2 -30 137 -9 159 23 159 33 1 34 l-138 0 0 -25z"/>
<path d="M1710 6592 c-20 -10 -42 -32 -52 -52 -17 -33 -18 -141 -18 -1835 0
-1203 4 -1812 10 -1837 7 -23 25 -49 48 -68 l37 -30 982 0 983 0 0 -32 c0 -54
20 -110 50 -140 l28 -28 483 0 482 0 32 34 c33 35 45 71 45 132 l0 34 983 0
c967 0 982 0 1015 20 66 41 62 -93 62 1902 0 1706 -1 1815 -18 1848 -26 53
-70 70 -178 70 l-91 0 -6 -1102 c-4 -607 -7 -1351 -7 -1654 0 -533 -1 -552
-20 -576 -25 -33 -56 -44 -160 -57 -152 -20 -1248 -175 -1640 -232 -74 -11
-153 -22 -175 -25 -22 -3 -70 -10 -106 -16 -57 -9 -70 -8 -103 7 -21 10 -47
32 -57 49 -18 30 -19 85 -19 1704 l0 1673 21 42 c12 23 39 68 61 99 21 32 41
64 44 73 5 13 -65 15 -632 15 -350 0 -635 -2 -633 -4 3 -3 214 -35 469 -71
256 -36 482 -70 503 -76 26 -7 44 -20 57 -42 20 -31 20 -64 20 -1703 l0 -1671
-23 -34 c-48 -72 18 -78 -1143 89 -572 82 -1050 154 -1062 161 -55 29 -52 -69
-52 1711 l0 1640 -92 0 c-69 0 -102 -5 -128 -18z"/>
</g>
</svg>
