<?xml version="1.0" standalone="no"?>
<!DOCTYPE svg PUBLIC "-//W3C//DTD SVG 20010904//EN"
 "http://www.w3.org/TR/2001/REC-SVG-20010904/DTD/svg10.dtd">
<svg version="1.0" xmlns="http://www.w3.org/2000/svg"
 width="860.000000pt" height="769.000000pt" viewBox="0 0 860.000000 769.000000"
 preserveAspectRatio="xMidYMid meet">

<g transform="translate(0.000000,769.000000) scale(0.100000,-0.100000)"
fill="#000000" stroke="none">
<path d="M3855 7021 c-1070 -588 -3105 -1698 -3170 -1730 -51 -25 -93 -57
-155 -120 -72 -72 -94 -102 -132 -181 -69 -143 -83 -207 -83 -385 0 -177 13
-235 81 -373 37 -75 61 -109 123 -171 l78 -78 -38 -32 c-90 -75 -180 -224
-221 -367 -30 -105 -33 -351 -5 -454 34 -123 94 -227 182 -316 l80 -82 -76
-80 c-85 -90 -152 -212 -186 -337 -25 -97 -25 -342 0 -435 24 -90 86 -214 141
-283 79 -98 230 -194 356 -225 25 -7 919 -203 1987 -437 1903 -417 1942 -426
1978 -411 77 33 3442 1930 3470 1957 26 25 30 37 30 80 0 46 -4 54 -37 85 -29
26 -46 34 -76 34 -32 0 -307 -151 -1743 -959 l-1706 -959 -1749 384 c-962 211
-1832 402 -1934 424 -123 27 -206 50 -248 71 -158 77 -251 246 -252 455 0 96
28 213 67 287 66 121 194 217 290 217 24 0 894 -187 1934 -415 1040 -228 1902
-415 1917 -415 33 0 -82 -64 1842 1019 910 512 1663 941 1673 954 47 61 22
153 -51 184 -33 14 -42 14 -77 1 -22 -8 -797 -440 -1723 -961 -925 -521 -1687
-947 -1693 -947 -5 0 -880 191 -1944 425 -1478 324 -1946 430 -1985 450 -146
74 -235 222 -247 410 -8 124 10 218 59 316 64 129 165 214 278 234 26 4 284
-49 970 -200 612 -135 946 -204 966 -200 100 18 125 173 35 219 -15 8 -451
107 -967 220 -516 113 -966 213 -1000 222 -213 55 -343 241 -344 490 0 209
102 400 253 474 l62 30 1930 -415 c1062 -228 1943 -415 1958 -415 15 0 42 7
60 16 154 79 3437 1932 3454 1950 47 51 37 141 -19 178 -27 18 -3838 856
-3888 856 -26 -1 -152 -65 -505 -259z m1427 -788 c345 -75 624 -140 620 -144
-19 -19 -739 -422 -752 -421 -13 0 -1240 268 -1264 275 -12 4 735 426 754 427
8 0 297 -61 642 -137z"/>
<path d="M6439 4231 l-1705 -960 -405 90 c-222 49 -413 89 -424 89 -34 0 -85
-39 -101 -77 -21 -49 -11 -95 29 -130 29 -25 73 -37 479 -126 l447 -98 43 19
c94 42 3435 1927 3463 1953 26 25 30 37 30 80 0 46 -4 54 -37 85 -29 26 -46
34 -76 34 -32 0 -311 -154 -1743 -959z"/>
</g>
</svg>
